# xmcd
#
# Track frame offsets:
#	150
#	17943
#	32198
#	46872
#	61705
#	75976
#	91150
#	106001
#	120060
#	134304
#	148331
#	162416
#	176404
#	189611
#	204864
#	219186
#	233457
#	248480
#	263154
#	277369
#
# Disc length: 3875 seconds
#
# Revision: 0
# Processed by: cddbd v1.5.2PL0 Copyright (c) Steve Scherf et al.
# Submitted via: EasyCDDAExtractor 16.0.6.1
#
DISCID=010f2114
DTITLE=Συλλογικός δίσκος - Τα ρεμπέτικα Β 1922-1937 07 Α
DYEAR=2010
DGENRE=Ρεμπέτικη
TTITLE0=Άνευ ερμηνευτού - Μινόρε του τεκέ [οργανικό, Ν. Υόρκη 1.1932]
TTITLE1=Βαμβακάρης Μάρκος - Εφουμάραμ' ένα βράδυ [ζεϊμπ., Μ. Βαμβακάρη, Αθήνα 
TTITLE1=11.1932]
TTITLE2=Εσκενάζυ Ρόζα - Λιλή σκανδαλιάρα [Παν. Τούντας, Αθήνα 1931]
TTITLE3=Βαμβακάρης Μάρκος - Καραντουζένι [ζεϊμπ., Μ. Βαμβακάρη,Αθήνα 1933]
TTITLE4=Εσκενάζυ Ρόζα - Ούζο χασίς [ζεϊμπ., Τσάμας, Αθήνα 1935]
TTITLE5=Διαμαντίδης Αντώνης ή Νταλγκάς - Μέσ' στου Συγγρού τη φυλακή [απτάλ., 
TTITLE5=Α. Διαμαντίδης, Αθήνα 1932]
TTITLE6=Εσκενάζυ Ρόζα - Θέλω απόψε να γλεντήσω [αράπικο, Ι. Δραγάτσης, Αθήνα 1
TTITLE6=934]
TTITLE7=Κασιμάτης Ζαχαρίας - Φυλακισμένος [ζεϊμπ., Ι. Δραγάτσης, Αθήνα 1933]
TTITLE8=Βαμβακάρης Μάρκος - Ώρες με θρέφει ο λουλάς [χασάπ., Μ. Βαμβακάρης, Αθ
TTITLE8=ήνα 11.1933]
TTITLE9=Περπινιάδης Στελλάκης - Χθες το βράδυ στον τεκέ μας [ζεϊμπ., Στ. Χρυσί
TTITLE9=νης, Αθήνα 1934]
TTITLE10=Ρούκουνας Κώστας ή Σαμιωτάκης - Τράβα βρε μάγκα και αλάνη [χασάπ., Κ.
TTITLE10=Σκαρβέλης, Αθήνα 1934]
TTITLE11=Βαμβακάρης Μάρκος - Ο χασάπης [χασάπ., Μ. Βαμβακάρης, Αθήνα 1934]
TTITLE12=Εσκενάζυ Ρόζα - Νέα μερακλού [ζεϊμπ., Κ. Τζόβενος, Αθήνα 28.11.1933]
TTITLE13=Παγιουμτζής Στράτος - Ζεμπεκάνο σπανιόλο [ζεϊμπ., Γ. Μπάτης, Αθήνα 7.
TTITLE13=1934]
TTITLE14=Αμπατζή Ρίτα - Ο μοντέρνος Χαραλάμπης [χασάπ., Παν. Τούντας, Αθήνα 11
TTITLE14=1934]
TTITLE15=Βαμβακάρης Μάρκος - Μαστούρας [χασάπ., Μ. Βαμβακάρης, Αθήνα 2.1933]
TTITLE16=Εσκενάζυ Ρόζα - Στου Συγγρού [Παν. Τούντας, Αθήνα 1931]
TTITLE17=Ασίκης Γρηγόρης - Βυρωνιότισσα [συρτός, Γρ. Ασίκης, Αθήνα 1932]
TTITLE18=Εσκενάζυ Ρόζα - Ραστ τσίφτε τέλι [μανές, Ρ. Εσκενάζυ, Αθήνα 1935]
TTITLE19=Διαμαντίδης Αντώνης-Κασιμάτης Ζαχαρίας - Οι δυό σερέτες [ζεϊμπ. καμηλ
TTITLE19=, Εμμ. Χρυσαφάκης, Αθήνα 1932]
EXTD=
EXTT0=
EXTT1=
EXTT2=
EXTT3=
EXTT4=
EXTT5=
EXTT6=
EXTT7=
EXTT8=
EXTT9=
EXTT10=
EXTT11=
EXTT12=
EXTT13=
EXTT14=
EXTT15=
EXTT16=
EXTT17=
EXTT18=
EXTT19=
PLAYORDER=
